<?xml version="1.0" encoding="UTF-8"?> <svg xmlns="http://www.w3.org/2000/svg" xmlns:xlink="http://www.w3.org/1999/xlink" fill="none" height="321" viewBox="0 0 263 321" width="263"><clipPath id="a"><path d="m0 0h263v320.174h-263z"></path></clipPath><clipPath id="b"><path d="m131.212 164.735h123.551v122.695h-123.551z"></path></clipPath><mask id="c" height="44" maskUnits="userSpaceOnUse" width="248" x="8" y="71"><path d="m8.53979 80.8063c0-5.1033 4.13701-9.2403 9.24021-9.2403h228.234c5.103 0 9.24 4.137 9.24 9.2403v34.1887h-246.71421z" fill="#fff"></path></mask><g clip-path="url(#a)"><path d="m4.27966 138.685v89.596c0 1.712.85602 3.139 2.28271 3.995l125.26363 72.476v-166.067z" fill="#1d5162"></path><path d="m110.711 255.959c0-11.128 9.131-20.259 20.259-20.259v40.803c-11.128 0-20.259-9.13-20.259-20.544z" fill="#90a5b1"></path><path d="m88.7408 257.957c0-23.398 18.8322-42.23 42.2302-42.23 0-1.712 0-2.854 0-2.854v-48.507h-21.686v15.693c-5.136 1.427-9.7014 3.424-14.5521 5.992l-11.1282-11.128-30.2459 30.531 11.1282 11.129c-2.568 4.565-4.5654 9.416-5.9921 14.267h-15.6936v18.261l51.9316 29.961c-3.7094-6.278-5.9921-13.411-5.9921-21.115z" fill="#628794"></path><path d="m131.255 301.899 124.978-72.476c1.427-.856 2.283-2.283 2.283-3.995v-89.596h-127.261z" fill="#010101"></path><g clip-path="url(#b)"><g fill="#1f5262"><path d="m213.389 175.007c-2.569-3.139-5.422-5.992-9.131-7.704-3.424-1.712-7.419-2.854-11.414-2.854s-7.704.857-11.413 2.854c-3.424 1.712-6.563 4.28-9.131 7.704z"></path><path d="m131.212 175.008c2.568 3.424 5.706 5.992 9.13 7.989 3.71 1.998 7.419 2.854 11.414 2.854s7.989-.856 11.414-2.854c3.709-1.997 6.848-4.565 9.13-7.989z"></path><path d="m213.389 175.008c2.568 3.424 5.707 5.992 9.131 7.989 3.709 1.998 7.419 2.854 11.413 2.854 3.995 0 7.99-.856 11.414-2.854 3.709-1.997 6.848-4.565 9.131-7.989z"></path></g><path d="m213.389 195.551c-2.569-3.424-5.422-5.992-9.131-7.704-3.71-1.712-7.419-2.853-11.414-2.853s-7.704.856-11.413 2.853c-3.424 1.712-6.563 4.565-9.131 7.704z" fill="#628794"></path><path d="m131.212 195.552c2.568 3.138 5.706 5.707 9.13 7.419 3.71 1.712 7.419 2.568 11.414 2.568s7.989-.856 11.414-2.568c3.709-1.712 6.848-4.281 9.13-7.419z" fill="#628794"></path><path d="m213.389 195.552c2.568 3.138 5.707 5.707 9.131 7.419 3.709 1.712 7.419 2.568 11.413 2.568 3.995 0 7.99-.856 11.414-2.568 3.709-1.712 6.848-4.281 9.131-7.419z" fill="#628794"></path><path d="m213.389 215.81c-2.569-3.138-5.422-5.992-9.131-7.704-3.424-1.712-7.419-2.853-11.414-2.853s-7.704.856-11.413 2.853c-3.424 1.712-6.563 4.28-9.131 7.704z" fill="#1f5262"></path><path d="m131.212 215.811c2.568 3.424 5.706 5.992 9.13 7.99 3.425 1.997 7.419 2.853 11.414 2.853s7.989-.856 11.414-2.853c3.709-1.998 6.848-4.566 9.13-7.99z" fill="#1f5262"></path><path d="m213.389 215.811c2.568 3.424 5.707 5.992 9.131 7.99 3.709 1.997 7.419 2.853 11.413 2.853 3.995 0 7.99-.856 11.414-2.853 3.709-1.998 6.848-4.566 9.131-7.99z" fill="#1f5262"></path><path d="m213.389 236.354c-2.569-3.424-5.422-5.992-9.131-7.704-3.71-1.712-7.419-2.853-11.414-2.853s-7.704.856-11.413 2.853c-3.424 1.712-6.563 4.566-9.131 7.704z" fill="#628794"></path><path d="m131.212 236.355c2.568 3.139 5.706 5.707 9.13 7.419 3.71 1.712 7.419 2.568 11.414 2.568s7.989-.856 11.414-2.568c3.709-1.712 6.848-4.28 9.13-7.419z" fill="#628794"></path><path d="m213.389 236.355c2.568 3.139 5.707 5.707 9.131 7.419.57.285 1.141.571 1.712.856l13.981-8.275z" fill="#628794"></path><path d="m210.25 253.189c-1.712-1.712-3.71-3.139-5.992-4.28-3.424-1.712-7.419-2.854-11.414-2.854s-7.704.856-11.413 2.854c-3.424 1.712-6.563 4.28-9.131 7.704h31.672z" fill="#1f5262"></path><path d="m131.212 256.615c2.568 3.424 5.706 5.992 9.13 7.989 3.71 1.997 7.419 2.853 11.414 2.853s7.989-.856 11.414-2.853c3.709-1.997 6.848-4.565 9.13-7.989z" fill="#1f5262"></path><path d="m131.212 277.159c2.568 3.138 5.706 5.706 9.13 7.418 3.425 1.712 7.419 2.568 11.414 2.568h1.427l16.835-9.986z" fill="#628794"></path></g><path d="m131.014 21.3862c-71.2407 0-123.38894 18.6437-123.38894 32.3219v70.8699h247.99194l-1.214-70.8699c0-13.6782-52.148-32.3219-123.389-32.3219z" fill="#1b3139"></path><g mask="url(#c)"><path d="m6.59863 63.2496h251.33437v58.2134h-251.33437z" fill="#90a5b1"></path></g><path d="m129.189 83.4984-2.496 4.9917c0 .3565-.357.7131-.713.7131l-5.705.7131c-1.07 0-1.426 1.0696-.713 1.7827l3.922 3.9221c.356.3565.356.7131.356 1.0696l-1.069 5.7043c0 1.07.713 1.427 1.426 1.07l4.992-2.496h1.069l4.992 2.496c.713.357 1.783-.356 1.426-1.07l-.356-5.7043c0-.3565 0-.7131.356-1.0696l3.922-3.9221c.713-.7131.357-1.7827-.713-1.7827l-5.705-.7131c-.356 0-.713-.3566-.713-.7131l-2.496-4.9917c0-.7131-1.069-.7131-1.782 0z" fill="#1b313a"></path><path d="m257.445 114.578h-252.25787v49.898h252.25787z" fill="#1b3139"></path><path d="m76.4713 136.123v-12.937h1.9589v11.181h6.3758v1.756zm14.2967.222c-.7269 0-1.3368-.124-1.8296-.37-.4928-.259-.8624-.598-1.1088-1.016-.2464-.432-.3696-.9-.3696-1.405 0-.899.3264-1.602.9794-2.107.6653-.505 1.6017-.757 2.8091-.757h2.3654v-.204c0-1.38-.6406-2.07-1.9219-2.07-.5298 0-.9795.117-1.3491.352-.3573.221-.5975.585-.7207 1.09h-1.959c.0986-.961.5113-1.719 1.2382-2.273.7393-.567 1.6694-.85 2.7906-.85 1.3552 0 2.3408.332 2.9569.998.616.665.924 1.583.924 2.753v5.637h-1.6633l-.1663-1.349h-.1294c-.271.431-.6098.801-1.0164 1.109-.4065.308-1.0164.462-1.8295.462zm.3696-1.645c.8008 0 1.3983-.24 1.7926-.721.4065-.493.6283-1.115.6653-1.866h-2.1438c-.7022 0-1.2012.117-1.4969.351-.2833.221-.425.536-.425.942 0 .407.1417.727.425.961.2957.222.69.333 1.1828.333zm7.81 1.423v-13.306h1.9594v7.983l3.511-3.844h2.458l-3.826 4.066v.148l4.325 4.953h-2.384l-4.084-4.713v4.713zm14.9254.222c-.887 0-1.67-.198-2.347-.592-.678-.406-1.208-.967-1.59-1.682-.382-.714-.573-1.546-.573-2.494 0-.961.185-1.805.555-2.532.382-.727.911-1.294 1.589-1.7.69-.407 1.485-.61 2.384-.61.887 0 1.651.203 2.292.61.64.394 1.133.924 1.478 1.589.357.665.536 1.398.536 2.199v.407c0 .135-.006.289-.018.462h-6.894c.062.85.339 1.497.832 1.94.493.431 1.072.647 1.737.647.579 0 1.035-.117 1.368-.351.345-.247.597-.579.757-.998h1.978c-.222.875-.684 1.614-1.386 2.218-.703.591-1.602.887-2.698.887zm0-7.91c-.604 0-1.14.185-1.608.554-.468.358-.77.863-.906 1.516h4.879c-.049-.616-.289-1.115-.721-1.497-.431-.382-.979-.573-1.644-.573zm6.775 7.688v-13.306h1.959v5.507c.246-.456.64-.832 1.182-1.127.542-.308 1.152-.462 1.83-.462 1.133 0 1.996.345 2.587 1.035.592.677.887 1.657.887 2.938v5.415h-1.959v-5.138c0-.764-.184-1.355-.554-1.774s-.881-.628-1.534-.628c-.678 0-1.257.228-1.737.684-.468.455-.702 1.115-.702 1.977v4.879zm15.276.222c-.875 0-1.657-.198-2.347-.592s-1.232-.948-1.626-1.663c-.395-.727-.592-1.577-.592-2.55 0-.974.197-1.818.592-2.532.394-.727.936-1.288 1.626-1.682s1.478-.591 2.365-.591 1.67.197 2.347.591c.69.394 1.226.955 1.608 1.682.394.714.591 1.558.591 2.532 0 .973-.197 1.823-.591 2.55-.394.715-.936 1.269-1.626 1.663-.678.394-1.46.592-2.347.592zm0-1.867c.468 0 .899-.105 1.293-.314.395-.21.709-.53.943-.961.246-.444.37-.998.37-1.663 0-.678-.124-1.232-.37-1.664-.234-.431-.548-.751-.943-.961-.381-.209-.807-.314-1.275-.314s-.899.105-1.293.314c-.395.21-.715.53-.961.961-.234.432-.351.986-.351 1.664 0 1.01.252 1.755.757 2.236.518.468 1.128.702 1.83.702zm10.268 1.867c-1.109 0-1.953-.339-2.532-1.017-.567-.69-.85-1.688-.85-2.994v-5.378h1.959v5.138c0 .752.16 1.343.48 1.774.333.419.838.629 1.516.629.677 0 1.244-.228 1.7-.684s.684-1.115.684-1.978v-4.879h1.959v9.167h-1.701l-.166-1.368h-.092c-.247.444-.629.82-1.146 1.128-.518.308-1.121.462-1.811.462zm11.968 0c-1.208 0-2.169-.284-2.883-.851-.715-.566-1.121-1.318-1.22-2.254h2.015c.073.431.289.782.646 1.053.37.271.857.407 1.46.407.579 0 1.023-.117 1.331-.351.32-.247.48-.53.48-.85 0-.469-.191-.789-.572-.961-.37-.173-.918-.302-1.645-.388-.629-.074-1.201-.216-1.719-.426-.505-.221-.905-.517-1.201-.887-.296-.382-.444-.856-.444-1.423 0-.8.314-1.447.943-1.94.628-.493 1.503-.739 2.624-.739s1.99.252 2.606.757c.616.506.973 1.195 1.072 2.07h-1.885c-.05-.369-.241-.659-.573-.868-.333-.222-.746-.333-1.238-.333-.506 0-.906.099-1.202.296-.295.185-.443.431-.443.739 0 .665.714 1.072 2.144 1.22.677.074 1.281.203 1.811.388.529.172.948.449 1.256.831.308.37.462.894.462 1.571.013.555-.148 1.054-.48 1.497-.321.444-.77.795-1.349 1.053-.567.259-1.232.389-1.996.389zm11.118 0c-.887 0-1.67-.198-2.347-.592-.678-.406-1.208-.967-1.589-1.682-.382-.714-.573-1.546-.573-2.494 0-.961.184-1.805.554-2.532.382-.727.912-1.294 1.589-1.7.69-.407 1.485-.61 2.384-.61.887 0 1.651.203 2.292.61.641.394 1.133.924 1.478 1.589.358.665.536 1.398.536 2.199v.407c0 .135-.006.289-.018.462h-6.893c.061.85.338 1.497.831 1.94.493.431 1.072.647 1.737.647.579 0 1.035-.117 1.368-.351.345-.247.597-.579.758-.998h1.977c-.222.875-.684 1.614-1.386 2.218-.702.591-1.602.887-2.698.887zm0-7.91c-.604 0-1.14.185-1.608.554-.468.358-.77.863-.905 1.516h4.878c-.049-.616-.289-1.115-.72-1.497-.432-.382-.98-.573-1.645-.573zm-103.8323 26.688v-12.937h8.2977v1.83h-6.3388v3.955h5.3224v1.719h-5.3224v5.433zm14.2597.222c-1.1088 0-1.9528-.339-2.5318-1.017-.5668-.69-.8501-1.688-.8501-2.994v-5.378h1.9589v5.138c0 .752.1602 1.343.4805 1.774.3326.419.8378.629 1.5154.629s1.2443-.228 1.7002-.684c.4558-.456.6838-1.115.6838-1.978v-4.879h1.9589v9.167h-1.7002l-.1663-1.368h-.0924c-.2464.444-.6284.82-1.1458 1.128-.5175.308-1.1212.462-1.8111.462zm7.7915-.222v-9.167h1.7002l.1663 1.368h.0924c.2465-.443.6284-.819 1.1458-1.127.5175-.308 1.115-.462 1.7926-.462 1.1212 0 1.9651.339 2.5319 1.016.5667.678.8501 1.676.8501 2.994v5.378h-1.959v-5.138c0-.764-.1601-1.355-.4805-1.774-.3203-.419-.8254-.628-1.5154-.628-.6776 0-1.2443.228-1.7002.684-.4435.455-.6653 1.115-.6653 1.977v4.879zm14.6851.222c-.764 0-1.448-.179-2.052-.536-.6034-.37-1.0839-.912-1.4411-1.627-.345-.714-.5175-1.595-.5175-2.642 0-1.048.1786-1.928.5359-2.643s.8378-1.251 1.4417-1.608c.616-.369 1.3-.554 2.051-.554.702 0 1.281.135 1.737.406.456.259.795.592 1.017.998v-5.322h1.959v13.306h-1.682l-.166-1.349h-.111c-.247.48-.598.862-1.054 1.146-.443.283-1.016.425-1.718.425zm.406-1.867c.702 0 1.282-.246 1.737-.739.469-.493.703-1.226.703-2.199 0-.986-.234-1.719-.703-2.2-.455-.492-1.035-.739-1.737-.739s-1.287.247-1.755.739c-.456.493-.684 1.233-.684 2.218 0 .973.228 1.706.684 2.199.468.481 1.053.721 1.755.721zm10.342 1.867c-.727 0-1.337-.124-1.829-.37-.493-.259-.863-.598-1.109-1.016-.247-.432-.37-.9-.37-1.405 0-.899.327-1.602.98-2.107.665-.505 1.601-.757 2.809-.757h2.365v-.204c0-1.38-.641-2.07-1.922-2.07-.53 0-.979.117-1.349.352-.357.221-.598.585-.721 1.09h-1.959c.099-.961.512-1.719 1.239-2.273.739-.567 1.669-.85 2.79-.85 1.355 0 2.341.332 2.957.998.616.665.924 1.583.924 2.753v5.637h-1.663l-.167-1.349h-.129c-.271.431-.61.801-1.016 1.109-.407.308-1.017.462-1.83.462zm.37-1.645c.8 0 1.398-.24 1.792-.721.407-.493.629-1.115.666-1.866h-2.144c-.702 0-1.201.117-1.497.351-.283.221-.425.536-.425.942 0 .407.142.727.425.961.296.222.69.333 1.183.333zm6.461 1.423v-9.167h1.626l.166 1.072h.093c.16-.382.406-.69.739-.924.332-.246.727-.369 1.183-.369.443 0 .831.111 1.164.332.333.222.579.542.739.961h.074c.16-.369.413-.677.758-.924.345-.246.77-.369 1.275-.369.677 0 1.189.221 1.534.665.357.444.536 1.066.536 1.867v6.856h-1.885v-6.468c0-.37-.08-.659-.241-.869-.147-.222-.388-.333-.72-.333-.333 0-.61.13-.832.389-.209.258-.314.622-.314 1.09v6.191h-1.904v-6.468c0-.37-.074-.659-.221-.869-.148-.222-.388-.333-.721-.333s-.61.13-.832.389c-.221.258-.332.622-.332 1.09v6.191zm16.274.222c-.887 0-1.67-.198-2.347-.592-.678-.406-1.208-.967-1.59-1.682-.382-.714-.573-1.546-.573-2.494 0-.961.185-1.805.555-2.532.382-.727.912-1.294 1.589-1.7.69-.407 1.485-.61 2.384-.61.887 0 1.651.203 2.292.61.64.394 1.133.924 1.478 1.589.357.665.536 1.398.536 2.199v.407c0 .135-.006.289-.018.462h-6.894c.062.85.339 1.497.832 1.94.493.431 1.072.647 1.737.647.579 0 1.035-.117 1.368-.351.345-.247.597-.579.757-.998h1.978c-.222.875-.684 1.614-1.386 2.218-.702.591-1.602.887-2.698.887zm0-7.91c-.604 0-1.14.185-1.608.554-.468.358-.77.863-.906 1.516h4.879c-.049-.616-.289-1.115-.721-1.497-.431-.382-.979-.573-1.644-.573zm6.867 7.688v-9.167h1.7l.167 1.368h.092c.247-.443.628-.819 1.146-1.127.517-.308 1.115-.462 1.793-.462 1.121 0 1.965.339 2.531 1.016.567.678.85 1.676.85 2.994v5.378h-1.958v-5.138c0-.764-.161-1.355-.481-1.774s-.825-.628-1.515-.628c-.678 0-1.245.228-1.701.684-.443.455-.665 1.115-.665 1.977v4.879zm16.182 0c-.9 0-1.614-.216-2.144-.647-.53-.444-.795-1.226-.795-2.347v-4.509h-2.31v-1.664h1.368c.628 0 .998-.308 1.109-.924l.277-1.478h1.515v2.402h3.623v1.664h-3.623v4.472c0 .48.105.819.315 1.016.221.185.597.278 1.127.278h2.144v1.737zm9.251.222c-.727 0-1.336-.124-1.829-.37-.493-.259-.863-.598-1.109-1.016-.246-.432-.37-.9-.37-1.405 0-.899.327-1.602.98-2.107.665-.505 1.601-.757 2.809-.757h2.365v-.204c0-1.38-.64-2.07-1.922-2.07-.529 0-.979.117-1.349.352-.357.221-.597.585-.72 1.09h-1.959c.098-.961.511-1.719 1.238-2.273.739-.567 1.669-.85 2.79-.85 1.356 0 2.341.332 2.957.998.616.665.924 1.583.924 2.753v5.637h-1.663l-.166-1.349h-.13c-.271.431-.61.801-1.016 1.109-.407.308-1.017.462-1.83.462zm.37-1.645c.801 0 1.398-.24 1.793-.721.406-.493.628-1.115.665-1.866h-2.144c-.702 0-1.201.117-1.497.351-.283.221-.425.536-.425.942 0 .407.142.727.425.961.296.222.69.333 1.183.333zm7.256 1.423v-1.7h3.067v-9.296c0-.407-.197-.61-.591-.61h-2.218v-1.7h2.569c.715 0 1.257.191 1.626.573.382.369.573.911.573 1.626v9.407h3.086v1.7zm15.442.222c-1.207 0-2.168-.284-2.883-.851-.715-.566-1.121-1.318-1.22-2.254h2.015c.074.431.289.782.647 1.053.369.271.856.407 1.459.407.58 0 1.023-.117 1.331-.351.32-.247.481-.53.481-.85 0-.469-.191-.789-.573-.961-.37-.173-.918-.302-1.645-.388-.628-.074-1.201-.216-1.719-.426-.505-.221-.905-.517-1.201-.887-.296-.382-.444-.856-.444-1.423 0-.8.315-1.447.943-1.94s1.503-.739 2.624-.739 1.99.252 2.606.757c.616.506.973 1.195 1.072 2.07h-1.885c-.049-.369-.24-.659-.573-.868-.333-.222-.745-.333-1.238-.333-.505 0-.906.099-1.202.296-.295.185-.443.431-.443.739 0 .665.715 1.072 2.144 1.22.677.074 1.281.203 1.811.388.53.172.948.449 1.256.831.308.37.462.894.462 1.571.013.555-.147 1.054-.48 1.497-.32.444-.77.795-1.349 1.053-.567.259-1.232.389-1.996.389z" fill="#fff"></path><path clip-rule="evenodd" d="m.00000054 54.1002c0-21.3445 58.81849946-39.7965 131.30099946-39.7965 72.498 0 131.316 18.452 131.259 39.7965v172.9818c.001 1.512-.394 2.997-1.143 4.309-.75 1.312-1.829 2.405-3.132 3.172l-126.898 73.609-127.1124-73.609c-1.30218-.767-2.38151-1.86-3.13124-3.172-.749741-1.312-1.14389014-2.797-1.14335946-4.309zm131.45199946 244.6188-.099.057.1-.057zm122.676-70.976-122.676 70.976-122.77363-71.033c-.11224-.065-.20544-.158-.27028-.27-.06483-.113-.09903-.24-.09911-.369v-172.3323c-.22731-5.8816 10.04412-13.809 32.98792-20.4009h.2132c.4034-.1073.8185-.1646 1.236-.1704 1.2245 0 2.3989.4864 3.2648 1.3523s1.3523 2.0403 1.3523 3.2648c.1894 2.5351.9505 3.1936 2.2089 4.2825.551.4768 1.1974 1.0361 1.9329 1.8715 1.6858 1.9149 3.7756 2.0607 6.1018 2.2229 1.0066.0703 2.0575.1436 3.1391.3647 23.2623 4.4696 46.9061 6.6536 70.5931 6.5209h.1c23.687.1327 47.331-2.0513 70.593-6.5209 1.082-.2209 2.133-.2941 3.14-.3642 2.328-.1619 4.419-.3074 6.107-2.2221.736-.8357 1.384-1.3951 1.936-1.8721 1.259-1.0886 2.022-1.7477 2.214-4.2832.003-1.2234.491-2.3956 1.356-3.2607.865-.865 2.037-1.3527 3.261-1.3564.422.0058.842.0631 1.25.1704h.213c22.944 6.5919 33.201 14.5193 32.988 20.4009v172.3883c0 .13-.034.257-.099.369-.065.113-.158.206-.27.271z" fill="#1b3139" fill-rule="evenodd"></path><path d="m89.2886 58.517v-1.6937c-.0011-.0626-.0214-.1234-.0582-.174-.0368-.0507-.0883-.0887-.1475-.1091-.0592-.0203-.1233-.022-.1834-.0047-.0602.0174-.1136.0528-.1529.1015-.627.731-1.4073 1.3148-2.2855 1.71s-1.8328.592-2.7957.5765c-1.0329.0051-2.0556-.2045-3.0032-.6156-.9477-.4111-1.7995-1.0147-2.5014-1.7726-1.4717-1.6267-2.2708-3.7516-2.2357-5.9449-.0477-1.0567.1158-2.1122.4807-3.105s.924-1.9029 1.6446-2.6771c.7207-.7743 1.5884-1.3971 2.5525-1.8322.964-.4351 2.0052-.6737 3.0625-.7019.9547-.0259 1.9036.1561 2.781.5334s1.6622.9408 2.3002 1.6515c.0492.0358.1085.0551.1694.0551.0608 0 .1201-.0193.1693-.0551.0596-.0211.1111-.0601.1475-.1116.0364-.0516.0559-.1132.0558-.1764v-8.4686h3.506v22.7637zm.1524-7.9266c-.02-.9803-.329-1.9329-.8882-2.7383-.5591-.8054-1.3436-1.4278-2.2551-1.7892-.9115-.3613-1.9094-.4455-2.8685-.2421-.9592.2035-1.8369.6856-2.5232 1.3859-.6863.7002-1.1505 1.5875-1.3345 2.5506-.1841.9631-.0797 1.959.3 2.863s1.0178 1.6758 1.8343 2.2186c.8166.5428 1.7752.8324 2.7557.8326 1.3299-.0266 2.5963-.5736 3.5274-1.5237.931-.95 1.4524-2.2273 1.4521-3.5574zm18.631 7.9266v-1.6937c.023-.0677.021-.1416-.008-.2073-.028-.0658-.079-.1187-.144-.1484-.051-.0315-.11-.0482-.17-.0482s-.118.0167-.169.0482c-.622.739-1.401 1.3305-2.28 1.7318-.878.4013-1.835.6024-2.801.5886-2.096-.1638-4.0525-1.112-5.4797-2.6551-1.4271-1.5431-2.2199-3.5677-2.2199-5.6696s.7928-4.1265 2.2199-5.6696c1.4272-1.5431 3.3837-2.4912 5.4797-2.655.955-.0397 1.906.1343 2.785.5094s1.664.9417 2.296 1.6585c.04.0482.094.0835.154.1016.06.018.124.018.185.0001.058-.0231.108-.0626.144-.1137s.057-.1117.059-.1743v-1.5921h3.472v15.8533zm.152-7.9266c-.02-.9803-.329-1.9329-.888-2.7383s-1.343-1.4278-2.255-1.7892c-.911-.3613-1.909-.4455-2.868-.2421-.96.2035-1.837.6856-2.5235 1.3859-.6863.7002-1.1506 1.5875-1.3346 2.5506-.1841.9631-.0797 1.959.3 2.863s1.0178 1.6758 1.8341 2.2186c.817.5428 1.775.8324 2.756.8326 1.327-.0309 2.589-.5799 3.516-1.5295.928-.9495 1.447-2.2243 1.447-3.5516zm29.556 7.9266v-1.6937c.004-.0617-.012-.1229-.046-.1748-.033-.0518-.083-.0915-.14-.1132-.051-.0315-.11-.0481-.17-.0481s-.118.0166-.169.0481c-.623.7381-1.402 1.329-2.28 1.7302-.879.4012-1.836.6028-2.801.5902-2.096-.1638-4.052-1.1119-5.48-2.655-1.427-1.5431-2.219-3.5677-2.219-5.6696s.792-4.1265 2.219-5.6696c1.428-1.5431 3.384-2.4912 5.48-2.6551.954-.0385 1.906.1361 2.785.5111s1.663.941 2.296 1.6569c.04.0482.094.0834.154.1015s.124.0181.185.0001c.056-.0238.104-.0639.137-.1153.033-.0513.05-.1115.049-.1726v-1.5921h3.489v15.8532zm.169-7.9266c-.02-.9803-.329-1.9329-.888-2.7383s-1.344-1.4278-2.255-1.7892c-.911-.3613-1.909-.4455-2.869-.2421-.959.2035-1.836.6856-2.523 1.3859-.686.7002-1.15 1.5875-1.334 2.5506s-.08 1.959.3 2.863c.379.904 1.018 1.6758 1.834 2.2186.817.5428 1.775.8324 2.756.8326 1.327-.0309 2.589-.5799 3.516-1.5295.928-.9495 1.447-2.2243 1.446-3.5516zm9.485 6.3345v1.5921h-3.506v-22.7637h3.506v8.6041c0 .0632.02.1248.056.1764.036.0515.088.0905.147.1116.052.0281.111.0429.17.0429s.117-.0148.169-.0429c.627-.731 1.407-1.3149 2.286-1.7101.878-.3952 1.832-.592 2.795-.5764 1.032-.0063 2.053.2011 3.001.6092.947.4081 1.8 1.008 2.504 1.762 1.469 1.6285 2.267 3.7522 2.236 5.945.05 1.058-.112 2.1153-.476 3.1101-.364.9947-.923 1.9068-1.643 2.6829-.721.7761-1.59 1.4005-2.555 1.8366-.965.4362-2.008.6754-3.067.7035-.956.026-1.906-.1576-2.784-.538s-1.662-.9483-2.297-1.6639c-.062-.0638-.148-.1003-.237-.1016h-.102c-.053.0135-.101.0411-.14.0799-.039.0387-.066.0872-.08.1403zm4.827-1.1856c1.009.0202 2.002-.2606 2.85-.8065.849-.5459 1.516-1.3323 1.917-2.2588.4-.9265.515-1.9512.331-2.9434-.185-.9923-.661-1.9071-1.367-2.6279s-1.612-1.215-2.6-1.4194c-.988-.2045-2.015-.1099-2.949.2715-.935.3814-1.734 1.0324-2.297 1.8701-.563.8376-.864 1.824-.864 2.8332-.001 1.3273.518 2.6021 1.446 3.5517.927.9495 2.189 1.4985 3.516 1.5295zm18.631-9.8236c.282-.0294.566-.0294.847 0v-3.5907c-.197-.0223-.396-.0223-.593 0-.878-.0098-1.744.2081-2.512.6326-.769.4245-1.415 1.041-1.874 1.7894-.035.0561-.086.0996-.147.124s-.129.0285-.192.0115c-.063-.0181-.118-.0559-.158-.1077-.039-.0518-.061-.115-.062-.1802v-1.9478h-3.473v15.8533h3.507v-6.9443c-.034-3.5568 1.744-5.6401 4.623-5.6401zm3.049-3.252v15.8533h3.54v-15.8533zm1.694-6.9104c-.426 0-.842.1262-1.195.3625-.354.2364-.63.5723-.793.9654-.162.393-.205.8255-.122 1.2428s.288.8005.589 1.1014c.3.3008.684.5057 1.101.5887s.85.0404 1.243-.1225c.393-.1628.729-.4385.965-.7922.237-.3537.363-.7696.363-1.195 0-.5647-.222-1.1068-.618-1.5092s-.935-.633-1.499-.6419zm12.211 6.5209c-1.107-.0448-2.211.1391-3.244.5403-1.033.4011-1.972 1.011-2.759 1.7913-.787.7804-1.404 1.7146-1.814 2.7443-.409 1.0297-.602 2.1327-.567 3.2403-.043 1.1073.144 2.2115.549 3.2431.404 1.0316 1.018 1.9683 1.803 2.751.784.7828 1.722 1.3947 2.754 1.7973 1.033.4025 2.137.5869 3.245.5417 2.393.0197 4.707-.8563 6.487-2.4559l-1.999-2.1002c-1.173.8616-2.577 1.3514-4.031 1.4058-1.348 0-2.64-.5354-3.593-1.4883s-1.488-2.2453-1.488-3.5929.535-2.64 1.488-3.5929c.953-.953 2.245-1.4883 3.593-1.4883 1.44.0155 2.835.5101 3.963 1.4058l2.067-2.2357c-1.751-1.6305-4.061-2.5277-6.454-2.5067zm12.534 9.2477c.065-.0264.138-.0264.203 0 .083.0084.16.0442.22.1016l5.607 6.9612h4.319l-7.249-8.892c-.05-.0559-.078-.1283-.078-.2033s.028-.1473.078-.2032l6.673-6.6733h-4.268l-5.759 5.7756c-.048.0321-.104.0492-.161.0492s-.113-.0171-.161-.0492c-.056-.0237-.104-.0639-.137-.1153-.034-.0513-.051-.1115-.049-.1726v-12.4658h-3.506v22.7636h3.506v-6.1651c.001-.0894.038-.1746.101-.2371zm16.073 7.4016c.718.0648 1.441-.0168 2.127-.2401.685-.2232 1.317-.5834 1.859-1.0585.542-.4752.981-1.0556 1.292-1.7058s.486-1.3568.515-2.0768c0-2.168-1.355-3.6754-4.15-4.59l-1.914-.6267c-1.287-.4234-1.897-1.0331-1.897-1.8631 0-.8299.847-1.6937 2.084-1.6937.623.0495 1.22.2703 1.725.638.505.3676.899.8678 1.137 1.4453l2.812-1.5074c-.53-1.0423-1.344-1.9134-2.348-2.5128s-2.157-.9026-3.326-.8747c-.676-.0627-1.358.0135-2.003.2238-.646.2103-1.241.5504-1.75.9993-.51.4489-.922.9972-1.211 1.6111-.29.614-.451 1.2806-.473 1.9591 0 2.2018 1.321 3.6923 4.014 4.5392l1.948.6266c1.389.4404 1.948.9824 1.948 1.8801 0 1.3549-1.254 1.8292-2.321 1.8292-.729-.0282-1.433-.2739-2.022-.7055-.588-.4316-1.034-1.0294-1.281-1.7165l-2.828 1.4904c.483 1.1993 1.325 2.2202 2.41 2.9234 1.086.7033 2.361 1.0546 3.653 1.0061zm-95.204-.1694c.89.0005 1.778-.0618 2.659-.1863v-3.0318c-.561.0723-1.127.1119-1.693.1186-1.423 0-2.507-.2371-2.507-3.3875v-6.5039c0-.078.03-.153.083-.2098.054-.0567.127-.0907.205-.095h3.387v-2.8624h-3.387c-.078-.0044-.151-.0384-.205-.0951-.053-.0567-.083-.1318-.083-.2098v-4.4545h-3.489v4.59c0 .04-.008.0797-.023.1167-.016.037-.038.0706-.066.0989-.029.0283-.062.0507-.099.0661-.037.0153-.077.0232-.117.0232h-2.439v2.8624h2.439c.04 0 .08.0079.117.0232s.07.0378.099.0661c.028.0283.05.0619.066.0989.015.037.023.0766.023.1166v7.3847c-.068 5.4707 3.557 5.4707 5.03 5.4707zm-54.6225-12.8045-11.856 6.6563-12.6522-7.1137-.5928.3219v5.1827l13.245 7.4524 11.856-6.6563v2.7438l-11.856 6.6564-12.6522-7.1137-.5928.3388v.8807l13.245 7.4524 13.2449-7.4524v-5.1828l-.5928-.3387-12.6521 7.1136-11.8561-6.6563v-2.7269l11.8561 6.6394 13.2449-7.4524v-5.0812l-.6606-.3726-12.5843 7.0798-11.2125-6.3176 11.2125-6.3007 9.2308 5.1828.8299-.4573v-.6267l-10.0607-5.657-13.245 7.4524v.813l13.245 7.4524 11.856-6.6564z" fill="#fff"></path></g></svg> 